<?xml version="1.0" encoding="utf-8"?>
<svg version="1.1" id="Слой_1" x="0px" y="0px" viewBox="0 0 2600 2000" style="enable-background:new 0 0 2600 2000;" xmlns="http://www.w3.org/2000/svg">
  <style type="text/css">
	.st0{opacity:0.08;fill:#1F4A71;}
</style>
  <polygon id="XMLID_35_" class="st0" points="849.8,1584.3 812.6,1547.2 846.2,1513.6 812.6,1480 846.2,1446.4 812.6,1412.8 &#10;&#9;846.2,1379.2 812.6,1345.6 849.8,1308.5 856.8,1315.5 826.8,1345.6 860.4,1379.2 826.8,1412.8 860.4,1446.4 826.8,1480 &#10;&#9;860.4,1513.6 826.8,1547.2 856.8,1577.3 "/>
  <polygon id="XMLID_34_" class="st0" points="810.6,1584.3 773.5,1547.2 807.1,1513.6 773.5,1480 807.1,1446.4 773.5,1412.8 &#10;&#9;807.1,1379.2 773.5,1345.6 810.6,1308.5 817.7,1315.5 787.6,1345.6 821.2,1379.2 787.6,1412.8 821.2,1446.4 787.6,1480 &#10;&#9;821.2,1513.6 787.6,1547.2 817.7,1577.3 "/>
  <path id="XMLID_31_" class="st0" d="M2551.8,434.3l-7.1-7.1c0,0-47.7-47.7-66-66l-73.1,73.1l-7.1-7.1c0,0-47.7-47.7-66-66&#10;&#9;l-73.1,73.1l-7.1-7.1c0,0-47.7-47.7-66-66l-66,66l-14.1-14.1l74.5-74.5l1.8-0.8c4.1-1.7,8-0.7,11.7,3l65.2,65.2l67.4-67.4l1.8-0.8&#10;&#9;c4.1-1.7,8-0.7,11.7,3l65.2,65.2l67.4-67.4l1.8-0.8c4.1-1.7,8-0.7,11.7,3l65.2,65.2l67.4-67.4l1.8-0.8c4.1-1.7,8-0.7,11.7,3&#10;&#9;l72.3,72.3l-14.1,14.1c0,0-47.7-47.7-66-66L2551.8,434.3z"/>
  <circle id="XMLID_81_" class="st0" cx="1002.4" cy="1199.7" r="6.5"/>
  <polygon id="XMLID_29_" class="st0" points="429.5,137.9 392.3,100.8 425.9,67.2 392.3,33.6 425.9,0 392.3,-33.6 425.9,-67.2 &#10;&#9;392.3,-100.8 429.5,-137.9 436.5,-130.9 406.5,-100.8 440.1,-67.2 406.5,-33.6 440.1,0 406.5,33.6 440.1,67.2 406.5,100.8 &#10;&#9;436.5,130.9 "/>
  <polygon id="XMLID_28_" class="st0" points="390.3,137.9 353.2,100.8 386.8,67.2 353.2,33.6 386.8,0 353.2,-33.6 386.8,-67.2 &#10;&#9;353.2,-100.8 390.3,-137.9 397.4,-130.9 367.3,-100.8 400.9,-67.2 367.3,-33.6 400.9,0 367.3,33.6 400.9,67.2 367.3,100.8 &#10;&#9;397.4,130.9 "/>
  <polygon id="XMLID_57_" class="st0" points="739.9,754.6 702.8,717.5 736.4,683.9 702.8,650.3 736.4,616.7 702.8,583.1 736.4,549.5 &#10;&#9;702.8,515.9 739.9,478.8 747,485.8 716.9,515.9 750.5,549.5 716.9,583.1 750.5,616.7 716.9,650.3 750.5,683.9 716.9,717.5 &#10;&#9;747,747.5 "/>
  <polygon id="XMLID_55_" class="st0" points="700.8,754.6 663.6,717.5 697.2,683.9 663.6,650.3 697.2,616.7 663.6,583.1 697.2,549.5 &#10;&#9;663.6,515.9 700.8,478.8 707.9,485.8 677.8,515.9 711.4,549.5 677.8,583.1 711.4,616.7 677.8,650.3 711.4,683.9 677.8,717.5 &#10;&#9;707.9,747.5 "/>
  <polygon id="XMLID_21_" class="st0" points="2167.8,2137.9 2130.7,2100.8 2164.3,2067.2 2130.7,2033.6 2164.3,2000 2130.7,1966.4 &#10;&#9;2164.3,1932.8 2130.7,1899.2 2167.8,1862.1 2174.9,1869.1 2144.8,1899.2 2178.4,1932.8 2144.8,1966.4 2178.4,2000 2144.8,2033.6 &#10;&#9;2178.4,2067.2 2144.8,2100.8 2174.9,2130.9 "/>
  <polygon id="XMLID_22_" class="st0" points="2128.7,2137.9 2091.6,2100.8 2125.2,2067.2 2091.6,2033.6 2125.2,2000 2091.6,1966.4 &#10;&#9;2125.2,1932.8 2091.6,1899.2 2128.7,1862.1 2135.8,1869.1 2105.7,1899.2 2139.3,1932.8 2105.7,1966.4 2139.3,2000 2105.7,2033.6 &#10;&#9;2139.3,2067.2 2105.7,2100.8 2135.8,2130.9 "/>
  <circle id="XMLID_153_" class="st0" cx="1386.8" cy="1804.1" r="6.5"/>
  <circle id="XMLID_152_" class="st0" cx="1437.4" cy="1804.1" r="6.5"/>
  <circle id="XMLID_151_" class="st0" cx="1488" cy="1804.1" r="6.5"/>
</svg>