<?xml version="1.0" encoding="utf-8"?>
<svg version="1.1" id="Слой_1" x="0px" y="0px" viewBox="0 0 2600 2000" style="enable-background:new 0 0 2600 2000;" xmlns="http://www.w3.org/2000/svg">
  <style type="text/css">
	.st0{opacity:0.08;fill:#1F4A71;}
</style>
  <rect id="XMLID_18_" x="53.3" y="444.7" transform="matrix(0.7071 -0.7071 0.7071 0.7071 -292.8602 202.3958)" class="st0" width="89.1" height="20"/>
  <rect id="XMLID_25_" x="87.9" y="410.2" transform="matrix(0.7071 -0.7071 0.7071 0.7071 -292.8602 202.3958)" class="st0" width="20" height="89.1"/>
  <polygon class="st0" points="1954.9,731.5 1940.8,717.4 1916.4,741.8 1891.9,717.4 1877.8,731.5 1902.2,755.9 1877.8,780.4 &#10;&#9;1891.9,794.5 1916.4,770.1 1940.8,794.5 1954.9,780.4 1930.5,755.9 "/>
  <polygon class="st0" points="530.4,1393.8 516.2,1379.6 491.8,1404.1 467.4,1379.6 453.2,1393.8 477.6,1418.2 453.2,1442.6 &#10;&#9;467.4,1456.8 491.8,1432.3 516.2,1456.8 530.4,1442.6 505.9,1418.2 "/>
  <g>
    <circle class="st0" cx="492.5" cy="678.8" r="6.5"/>
    <polygon class="st0" points="406.4,549.9 381.9,574.4 357.5,549.9 343.4,564.1 367.8,588.5 343.4,612.9 357.5,627.1 381.9,602.6 &#10;&#9;&#9;406.4,627.1 420.5,612.9 396.1,588.5 420.5,564.1 &#9;"/>
  </g>
  <polygon class="st0" points="2526,1841.2 2511.8,1827 2487.4,1851.5 2463,1827 2448.8,1841.2 2473.2,1865.6 2448.8,1890 &#10;&#9;2463,1904.2 2487.4,1879.7 2511.8,1904.2 2526,1890 2501.5,1865.6 "/>
  <polygon class="st0" points="2352.7,1183.7 2338.5,1169.6 2314.1,1194 2289.7,1169.6 2275.5,1183.7 2300,1208.2 2275.5,1232.6 &#10;&#9;2289.7,1246.7 2314.1,1222.3 2338.5,1246.7 2352.7,1232.6 2328.3,1208.2 "/>
  <polygon class="st0" points="1572.4,710 1565.2,691.3 1532.9,703.7 1520.5,671.5 1501.8,678.7 1514.3,710.9 1482,723.3 1489.2,742 &#10;&#9;1521.4,729.6 1533.9,761.8 1552.5,754.6 1540.1,722.4 "/>
  <polygon class="st0" points="997.6,890.1 990.5,871.4 958.2,883.8 945.8,851.6 927.1,858.8 939.6,891 907.3,903.4 914.5,922.1 &#10;&#9;946.7,909.7 959.2,941.9 977.8,934.7 965.4,902.5 "/>
  <circle id="XMLID_166_" class="st0" cx="705.2" cy="2130.9" r="6.5"/>
  <circle id="XMLID_165_" class="st0" cx="750.6" cy="2130.9" r="6.5"/>
  <circle id="XMLID_164_" class="st0" cx="796.1" cy="2130.9" r="6.5"/>
  <circle id="XMLID_163_" class="st0" cx="841.5" cy="2130.9" r="6.5"/>
  <circle id="XMLID_162_" class="st0" cx="886.9" cy="2130.9" r="6.5"/>
  <circle id="XMLID_161_" class="st0" cx="659.8" cy="2130.9" r="6.5"/>
  <circle id="XMLID_160_" class="st0" cx="614.3" cy="2130.9" r="6.5"/>
</svg>