<?xml version="1.0" encoding="utf-8"?>
<svg version="1.1" id="Слой_1" x="0px" y="0px" viewBox="0 0 2600 2000" style="enable-background:new 0 0 2600 2000;" xmlns="http://www.w3.org/2000/svg">
  <style type="text/css">
	.st0{opacity:0.08;fill:#1F4A71;}
</style>
  <circle id="XMLID_144_" class="st0" cx="979.5" cy="343.6" r="6.5"/>
  <circle id="XMLID_143_" class="st0" cx="1025" cy="343.6" r="6.5"/>
  <circle id="XMLID_142_" class="st0" cx="1070.4" cy="343.6" r="6.5"/>
  <circle id="XMLID_141_" class="st0" cx="1115.8" cy="343.6" r="6.5"/>
  <circle id="XMLID_140_" class="st0" cx="1161.2" cy="343.6" r="6.5"/>
  <circle id="XMLID_139_" class="st0" cx="934.1" cy="343.6" r="6.5"/>
  <circle id="XMLID_138_" class="st0" cx="888.7" cy="343.6" r="6.5"/>
  <circle id="XMLID_136_" class="st0" cx="979.5" cy="395.9" r="6.5"/>
  <circle id="XMLID_135_" class="st0" cx="1025" cy="395.9" r="6.5"/>
  <circle id="XMLID_134_" class="st0" cx="1070.4" cy="395.9" r="6.5"/>
  <circle id="XMLID_133_" class="st0" cx="1115.8" cy="395.9" r="6.5"/>
  <circle id="XMLID_132_" class="st0" cx="1161.2" cy="395.9" r="6.5"/>
  <circle id="XMLID_131_" class="st0" cx="934.1" cy="395.9" r="6.5"/>
  <circle id="XMLID_130_" class="st0" cx="888.7" cy="395.9" r="6.5"/>
  <circle id="XMLID_128_" class="st0" cx="979.5" cy="448.2" r="6.5"/>
  <circle id="XMLID_127_" class="st0" cx="1025" cy="448.2" r="6.5"/>
  <circle id="XMLID_126_" class="st0" cx="1070.4" cy="448.2" r="6.5"/>
  <circle id="XMLID_125_" class="st0" cx="1115.8" cy="448.2" r="6.5"/>
  <circle id="XMLID_124_" class="st0" cx="1161.2" cy="448.2" r="6.5"/>
  <circle id="XMLID_123_" class="st0" cx="934.1" cy="448.2" r="6.5"/>
  <circle id="XMLID_122_" class="st0" cx="888.7" cy="448.2" r="6.5"/>
  <circle id="XMLID_120_" class="st0" cx="979.5" cy="500.6" r="6.5"/>
  <circle id="XMLID_119_" class="st0" cx="1025" cy="500.6" r="6.5"/>
  <circle id="XMLID_118_" class="st0" cx="1070.4" cy="500.6" r="6.5"/>
  <circle id="XMLID_117_" class="st0" cx="1115.8" cy="500.6" r="6.5"/>
  <circle id="XMLID_116_" class="st0" cx="1161.2" cy="500.6" r="6.5"/>
  <circle id="XMLID_115_" class="st0" cx="934.1" cy="500.6" r="6.5"/>
  <circle id="XMLID_114_" class="st0" cx="888.7" cy="500.6" r="6.5"/>
  <circle id="XMLID_112_" class="st0" cx="979.5" cy="552.9" r="6.5"/>
  <circle id="XMLID_111_" class="st0" cx="1025" cy="552.9" r="6.5"/>
  <circle id="XMLID_110_" class="st0" cx="1070.4" cy="552.9" r="6.5"/>
  <circle id="XMLID_109_" class="st0" cx="1115.8" cy="552.9" r="6.5"/>
  <circle id="XMLID_108_" class="st0" cx="1161.2" cy="552.9" r="6.5"/>
  <circle id="XMLID_107_" class="st0" cx="934.1" cy="552.9" r="6.5"/>
  <circle id="XMLID_106_" class="st0" cx="888.7" cy="552.9" r="6.5"/>
  <circle id="XMLID_104_" class="st0" cx="979.5" cy="605.3" r="6.5"/>
  <circle id="XMLID_103_" class="st0" cx="1025" cy="605.3" r="6.5"/>
  <circle id="XMLID_102_" class="st0" cx="1070.4" cy="605.3" r="6.5"/>
  <circle id="XMLID_101_" class="st0" cx="1115.8" cy="605.3" r="6.5"/>
  <circle id="XMLID_100_" class="st0" cx="1161.2" cy="605.3" r="6.5"/>
  <circle id="XMLID_99_" class="st0" cx="934.1" cy="605.3" r="6.5"/>
  <circle id="XMLID_98_" class="st0" cx="888.7" cy="605.3" r="6.5"/>
  <circle id="XMLID_54_" class="st0" cx="2143.9" cy="544.4" r="6.5"/>
  <circle id="XMLID_46_" class="st0" cx="2143.9" cy="595" r="6.5"/>
  <circle id="XMLID_37_" class="st0" cx="2143.9" cy="645.5" r="6.5"/>
  <circle id="XMLID_221_" class="st0" cx="492.5" cy="729.4" r="6.5"/>
  <circle id="XMLID_220_" class="st0" cx="492.5" cy="779.9" r="6.5"/>
  <circle id="XMLID_370_" class="st0" cx="2487.4" cy="1380" r="6.5"/>
  <circle id="XMLID_369_" class="st0" cx="2532.3" cy="1380" r="6.5"/>
  <circle id="XMLID_368_" class="st0" cx="2577.2" cy="1380" r="6.5"/>
  <circle id="XMLID_367_" class="st0" cx="2622.2" cy="1380" r="6.5"/>
  <circle id="XMLID_366_" class="st0" cx="2667.1" cy="1380" r="6.5"/>
  <circle id="XMLID_365_" class="st0" cx="2442.5" cy="1380" r="6.5"/>
  <circle id="XMLID_364_" class="st0" cx="2397.5" cy="1380" r="6.5"/>
  <circle id="XMLID_363_" class="st0" cx="2172.9" cy="1380" r="6.5"/>
  <circle id="XMLID_362_" class="st0" cx="2217.8" cy="1380" r="6.5"/>
  <circle id="XMLID_361_" class="st0" cx="2262.7" cy="1380" r="6.5"/>
  <circle id="XMLID_360_" class="st0" cx="2307.7" cy="1380" r="6.5"/>
  <circle id="XMLID_359_" class="st0" cx="2352.6" cy="1380" r="6.5"/>
  <circle id="XMLID_358_" class="st0" cx="2127.9" cy="1380" r="6.5"/>
  <circle id="XMLID_357_" class="st0" cx="2083" cy="1380" r="6.5"/>
  <circle id="XMLID_355_" class="st0" cx="2487.4" cy="1439.9" r="6.5"/>
  <circle id="XMLID_354_" class="st0" cx="2532.3" cy="1439.9" r="6.5"/>
  <circle id="XMLID_353_" class="st0" cx="2577.2" cy="1439.9" r="6.5"/>
  <circle id="XMLID_352_" class="st0" cx="2622.2" cy="1439.9" r="6.5"/>
  <circle id="XMLID_351_" class="st0" cx="2667.1" cy="1439.9" r="6.5"/>
  <circle id="XMLID_350_" class="st0" cx="2442.5" cy="1439.9" r="6.5"/>
  <circle id="XMLID_349_" class="st0" cx="2397.5" cy="1439.9" r="6.5"/>
  <circle id="XMLID_348_" class="st0" cx="2172.9" cy="1439.9" r="6.5"/>
  <circle id="XMLID_347_" class="st0" cx="2217.8" cy="1439.9" r="6.5"/>
  <circle id="XMLID_346_" class="st0" cx="2262.7" cy="1439.9" r="6.5"/>
  <circle id="XMLID_345_" class="st0" cx="2307.7" cy="1439.9" r="6.5"/>
  <circle id="XMLID_344_" class="st0" cx="2352.6" cy="1439.9" r="6.5"/>
  <circle id="XMLID_343_" class="st0" cx="2127.9" cy="1439.9" r="6.5"/>
  <circle id="XMLID_342_" class="st0" cx="2083" cy="1439.9" r="6.5"/>
  <circle id="XMLID_340_" class="st0" cx="2487.4" cy="1499.8" r="6.5"/>
  <circle id="XMLID_339_" class="st0" cx="2532.3" cy="1499.8" r="6.5"/>
  <circle id="XMLID_338_" class="st0" cx="2577.2" cy="1499.8" r="6.5"/>
  <circle id="XMLID_337_" class="st0" cx="2622.2" cy="1499.8" r="6.5"/>
  <circle id="XMLID_336_" class="st0" cx="2667.1" cy="1499.8" r="6.5"/>
  <circle id="XMLID_335_" class="st0" cx="2442.5" cy="1499.8" r="6.5"/>
  <circle id="XMLID_334_" class="st0" cx="2397.5" cy="1499.8" r="6.5"/>
  <circle id="XMLID_333_" class="st0" cx="2172.9" cy="1499.8" r="6.5"/>
  <circle id="XMLID_332_" class="st0" cx="2217.8" cy="1499.8" r="6.5"/>
  <circle id="XMLID_331_" class="st0" cx="2262.7" cy="1499.8" r="6.5"/>
  <circle id="XMLID_330_" class="st0" cx="2307.7" cy="1499.8" r="6.5"/>
  <circle id="XMLID_329_" class="st0" cx="2352.6" cy="1499.8" r="6.5"/>
  <circle id="XMLID_328_" class="st0" cx="2127.9" cy="1499.8" r="6.5"/>
  <circle id="XMLID_327_" class="st0" cx="2083" cy="1499.8" r="6.5"/>
  <circle id="XMLID_325_" class="st0" cx="2487.4" cy="1559.8" r="6.5"/>
  <circle id="XMLID_324_" class="st0" cx="2532.3" cy="1559.8" r="6.5"/>
  <circle id="XMLID_323_" class="st0" cx="2577.2" cy="1559.8" r="6.5"/>
  <circle id="XMLID_322_" class="st0" cx="2622.2" cy="1559.8" r="6.5"/>
  <circle id="XMLID_321_" class="st0" cx="2667.1" cy="1559.8" r="6.5"/>
  <circle id="XMLID_320_" class="st0" cx="2442.5" cy="1559.8" r="6.5"/>
  <circle id="XMLID_319_" class="st0" cx="2397.5" cy="1559.8" r="6.5"/>
  <circle id="XMLID_318_" class="st0" cx="2172.9" cy="1559.8" r="6.5"/>
  <circle id="XMLID_317_" class="st0" cx="2217.8" cy="1559.8" r="6.5"/>
  <circle id="XMLID_316_" class="st0" cx="2262.7" cy="1559.8" r="6.5"/>
  <circle id="XMLID_315_" class="st0" cx="2307.7" cy="1559.8" r="6.5"/>
  <circle id="XMLID_314_" class="st0" cx="2352.6" cy="1559.8" r="6.5"/>
  <circle id="XMLID_313_" class="st0" cx="2127.9" cy="1559.8" r="6.5"/>
  <circle id="XMLID_312_" class="st0" cx="2083" cy="1559.8" r="6.5"/>
  <circle id="XMLID_310_" class="st0" cx="2487.4" cy="1619.7" r="6.5"/>
  <circle id="XMLID_309_" class="st0" cx="2532.3" cy="1619.7" r="6.5"/>
  <circle id="XMLID_308_" class="st0" cx="2577.2" cy="1619.7" r="6.5"/>
  <circle id="XMLID_307_" class="st0" cx="2622.2" cy="1619.7" r="6.5"/>
  <circle id="XMLID_306_" class="st0" cx="2667.1" cy="1619.7" r="6.5"/>
  <circle id="XMLID_305_" class="st0" cx="2442.5" cy="1619.7" r="6.5"/>
  <circle id="XMLID_304_" class="st0" cx="2397.5" cy="1619.7" r="6.5"/>
  <circle id="XMLID_303_" class="st0" cx="2172.9" cy="1619.7" r="6.5"/>
  <circle id="XMLID_302_" class="st0" cx="2217.8" cy="1619.7" r="6.5"/>
  <circle id="XMLID_301_" class="st0" cx="2262.7" cy="1619.7" r="6.5"/>
  <circle id="XMLID_300_" class="st0" cx="2307.7" cy="1619.7" r="6.5"/>
  <circle id="XMLID_299_" class="st0" cx="2352.6" cy="1619.7" r="6.5"/>
  <circle id="XMLID_298_" class="st0" cx="2127.9" cy="1619.7" r="6.5"/>
  <circle id="XMLID_297_" class="st0" cx="2083" cy="1619.7" r="6.5"/>
  <circle id="XMLID_295_" class="st0" cx="2487.4" cy="1679.6" r="6.5"/>
  <circle id="XMLID_294_" class="st0" cx="2532.3" cy="1679.6" r="6.5"/>
  <circle id="XMLID_293_" class="st0" cx="2577.2" cy="1679.6" r="6.5"/>
  <circle id="XMLID_292_" class="st0" cx="2622.2" cy="1679.6" r="6.5"/>
  <circle id="XMLID_291_" class="st0" cx="2667.1" cy="1679.6" r="6.5"/>
  <circle id="XMLID_290_" class="st0" cx="2442.5" cy="1679.6" r="6.5"/>
  <circle id="XMLID_289_" class="st0" cx="2397.5" cy="1679.6" r="6.5"/>
  <circle id="XMLID_288_" class="st0" cx="2172.9" cy="1679.6" r="6.5"/>
  <circle id="XMLID_287_" class="st0" cx="2217.8" cy="1679.6" r="6.5"/>
  <circle id="XMLID_286_" class="st0" cx="2262.7" cy="1679.6" r="6.5"/>
  <circle id="XMLID_285_" class="st0" cx="2307.7" cy="1679.6" r="6.5"/>
  <circle id="XMLID_284_" class="st0" cx="2352.6" cy="1679.6" r="6.5"/>
  <circle id="XMLID_283_" class="st0" cx="2127.9" cy="1679.6" r="6.5"/>
  <circle id="XMLID_282_" class="st0" cx="2083" cy="1679.6" r="6.5"/>
  <circle id="XMLID_77_" class="st0" cx="2298" cy="204.1" r="6.5"/>
  <circle id="XMLID_76_" class="st0" cx="2348.6" cy="204.1" r="6.5"/>
  <circle id="XMLID_75_" class="st0" cx="2399.1" cy="204.1" r="6.5"/>
  <circle id="XMLID_81_" class="st0" cx="1002.4" cy="1199.7" r="6.5"/>
  <circle id="XMLID_80_" class="st0" cx="1053" cy="1199.7" r="6.5"/>
  <circle id="XMLID_79_" class="st0" cx="1103.5" cy="1199.7" r="6.5"/>
  <g>
    <circle class="st0" cx="492.5" cy="678.8" r="6.5"/>
  </g>
  <circle id="XMLID_153_" class="st0" cx="1386.8" cy="1804.1" r="6.5"/>
  <circle id="XMLID_152_" class="st0" cx="1437.4" cy="1804.1" r="6.5"/>
  <circle id="XMLID_151_" class="st0" cx="1488" cy="1804.1" r="6.5"/>
  <ellipse id="XMLID_41_" transform="matrix(0.4057 -0.914 0.914 0.4057 44.0526 2088.7544)" class="st0" cx="1628.2" cy="1010.5" rx="6.5" ry="6.5"/>
  <ellipse id="XMLID_33_" transform="matrix(0.4057 -0.914 0.914 0.4057 35.3357 2034.3202)" class="st0" cx="1582" cy="990" rx="6.5" ry="6.5"/>
  <ellipse id="XMLID_27_" transform="matrix(0.4057 -0.914 0.914 0.4057 26.6189 1979.8862)" class="st0" cx="1535.8" cy="969.5" rx="6.5" ry="6.5"/>
  <circle id="XMLID_206_" class="st0" cx="705.2" cy="1869.1" r="6.5"/>
  <circle id="XMLID_205_" class="st0" cx="750.6" cy="1869.1" r="6.5"/>
  <circle id="XMLID_204_" class="st0" cx="796.1" cy="1869.1" r="6.5"/>
  <circle id="XMLID_203_" class="st0" cx="841.5" cy="1869.1" r="6.5"/>
  <circle id="XMLID_202_" class="st0" cx="886.9" cy="1869.1" r="6.5"/>
  <circle id="XMLID_201_" class="st0" cx="659.8" cy="1869.1" r="6.5"/>
  <circle id="XMLID_200_" class="st0" cx="614.3" cy="1869.1" r="6.5"/>
  <circle id="XMLID_198_" class="st0" cx="705.2" cy="1921.5" r="6.5"/>
  <circle id="XMLID_197_" class="st0" cx="750.6" cy="1921.5" r="6.5"/>
  <circle id="XMLID_196_" class="st0" cx="796.1" cy="1921.5" r="6.5"/>
  <circle id="XMLID_195_" class="st0" cx="841.5" cy="1921.5" r="6.5"/>
  <circle id="XMLID_194_" class="st0" cx="886.9" cy="1921.5" r="6.5"/>
  <circle id="XMLID_193_" class="st0" cx="659.8" cy="1921.5" r="6.5"/>
  <circle id="XMLID_192_" class="st0" cx="614.3" cy="1921.5" r="6.5"/>
  <circle id="XMLID_190_" class="st0" cx="705.2" cy="1973.8" r="6.5"/>
  <circle id="XMLID_189_" class="st0" cx="750.6" cy="1973.8" r="6.5"/>
  <circle id="XMLID_188_" class="st0" cx="796.1" cy="1973.8" r="6.5"/>
  <circle id="XMLID_187_" class="st0" cx="841.5" cy="1973.8" r="6.5"/>
  <circle id="XMLID_186_" class="st0" cx="886.9" cy="1973.8" r="6.5"/>
  <circle id="XMLID_185_" class="st0" cx="659.8" cy="1973.8" r="6.5"/>
  <circle id="XMLID_184_" class="st0" cx="614.3" cy="1973.8" r="6.5"/>
  <circle id="XMLID_182_" class="st0" cx="705.2" cy="2026.2" r="6.5"/>
  <circle id="XMLID_181_" class="st0" cx="750.6" cy="2026.2" r="6.5"/>
  <circle id="XMLID_180_" class="st0" cx="796.1" cy="2026.2" r="6.5"/>
  <circle id="XMLID_179_" class="st0" cx="841.5" cy="2026.2" r="6.5"/>
  <circle id="XMLID_178_" class="st0" cx="886.9" cy="2026.2" r="6.5"/>
  <circle id="XMLID_177_" class="st0" cx="659.8" cy="2026.2" r="6.5"/>
  <circle id="XMLID_176_" class="st0" cx="614.3" cy="2026.2" r="6.5"/>
  <circle id="XMLID_174_" class="st0" cx="705.2" cy="2078.5" r="6.5"/>
  <circle id="XMLID_173_" class="st0" cx="750.6" cy="2078.5" r="6.5"/>
  <circle id="XMLID_172_" class="st0" cx="796.1" cy="2078.5" r="6.5"/>
  <circle id="XMLID_171_" class="st0" cx="841.5" cy="2078.5" r="6.5"/>
  <circle id="XMLID_170_" class="st0" cx="886.9" cy="2078.5" r="6.5"/>
  <circle id="XMLID_169_" class="st0" cx="659.8" cy="2078.5" r="6.5"/>
  <circle id="XMLID_168_" class="st0" cx="614.3" cy="2078.5" r="6.5"/>
  <circle id="XMLID_166_" class="st0" cx="705.2" cy="2130.9" r="6.5"/>
  <circle id="XMLID_165_" class="st0" cx="750.6" cy="2130.9" r="6.5"/>
  <circle id="XMLID_164_" class="st0" cx="796.1" cy="2130.9" r="6.5"/>
  <circle id="XMLID_163_" class="st0" cx="841.5" cy="2130.9" r="6.5"/>
  <circle id="XMLID_162_" class="st0" cx="886.9" cy="2130.9" r="6.5"/>
  <circle id="XMLID_161_" class="st0" cx="659.8" cy="2130.9" r="6.5"/>
  <circle id="XMLID_160_" class="st0" cx="614.3" cy="2130.9" r="6.5"/>
  <circle id="XMLID_210_" class="st0" cx="261.8" cy="1682.2" r="6.5"/>
  <circle id="XMLID_209_" class="st0" cx="312.4" cy="1682.2" r="6.5"/>
  <circle id="XMLID_208_" class="st0" cx="362.9" cy="1682.2" r="6.5"/>
</svg>