<?xml version="1.0" encoding="utf-8"?>
<svg version="1.1" id="Слой_1" x="0px" y="0px" viewBox="0 0 2600 2000" style="enable-background:new 0 0 2600 2000;" xmlns="http://www.w3.org/2000/svg">
  <style type="text/css">
	.st0{opacity:0.08;fill:#1F4A71;}
</style>
  <path id="XMLID_239_" class="st0" d="M1832.1,301.1l152.1-152.1c-1-1.9-2-3.7-3-5.5l-154.6,154.6&#10;&#9;C1828.4,299.2,1830.2,300.2,1832.1,301.1z"/>
  <path id="XMLID_243_" class="st0" d="M1848.2,307.8l142.7-142.7c-0.7-2.1-1.4-4.2-2.3-6.3l-146.7,146.7&#10;&#9;C1843.9,306.3,1846,307.1,1848.2,307.8z"/>
  <path id="XMLID_244_" class="st0" d="M1818,292.6l157.7-157.7c-1.2-1.7-2.4-3.3-3.7-4.9l-158.9,158.9&#10;&#9;C1814.7,290.2,1816.3,291.4,1818,292.6z"/>
  <path id="XMLID_245_" class="st0" d="M1981.2,256.9l-41.2,41.2C1957.1,288.3,1971.3,274,1981.2,256.9z"/>
  <path id="XMLID_246_" class="st0" d="M1915.2,308.8l76.6-76.6c1.1-3.7,2-7.4,2.7-11.2l-90.5,90.5&#10;&#9;C1907.8,310.8,1911.6,309.9,1915.2,308.8z"/>
  <path id="XMLID_247_" class="st0" d="M1866.5,312.1l128.7-128.7c-0.4-2.4-0.8-4.8-1.3-7.2l-134.6,134.6&#10;&#9;C1861.7,311.3,1864.1,311.8,1866.5,312.1z"/>
  <path id="XMLID_248_" class="st0" d="M1883.3,313.4c1.6,0,3.2,0,4.7-0.1L1996.3,205c0.1-1.6,0.1-3.2,0.1-4.7c0-1.3,0-2.6-0.1-3.8&#10;&#9;l-116.9,116.9C1880.8,313.3,1882,313.4,1883.3,313.4z"/>
  <path id="XMLID_249_" class="st0" d="M1805.5,282.3l159.9-159.9c-1.4-1.5-2.8-2.9-4.3-4.3l-159.9,159.9&#10;&#9;C1802.6,279.5,1804.1,281,1805.5,282.3z"/>
  <path id="XMLID_250_" class="st0" d="M1794.7,270.5l158.9-158.9c-1.6-1.3-3.2-2.5-4.9-3.7L1791,265.6&#10;&#9;C1792.2,267.3,1793.4,268.9,1794.7,270.5z"/>
  <path id="XMLID_251_" class="st0" d="M1770.2,200.3c0,1.3,0,2.6,0.1,3.8l116.9-116.9c-1.3,0-2.6-0.1-3.8-0.1c-1.6,0-3.2,0-4.7,0.1&#10;&#9;l-108.3,108.3C1770.3,197.1,1770.2,198.7,1770.2,200.3z"/>
  <path id="XMLID_252_" class="st0" d="M1785.4,143.6l41.2-41.2C1809.6,112.3,1795.3,126.5,1785.4,143.6z"/>
  <path id="XMLID_253_" class="st0" d="M1772.1,179.6l90.5-90.5c-3.8,0.7-7.6,1.6-11.2,2.7l-76.6,76.6&#10;&#9;C1773.7,172,1772.8,175.8,1772.1,179.6z"/>
  <path id="XMLID_254_" class="st0" d="M1772.8,224.3l134.6-134.6c-2.4-0.5-4.8-1-7.2-1.3l-128.7,128.7&#10;&#9;C1771.8,219.5,1772.3,221.9,1772.8,224.3z"/>
  <path id="XMLID_255_" class="st0" d="M1785.5,257l154.6-154.6c-1.8-1.1-3.7-2.1-5.5-3l-152.1,152.1&#10;&#9;C1783.4,253.4,1784.4,255.2,1785.5,257z"/>
  <path id="XMLID_256_" class="st0" d="M1778.1,241.7L1924.8,95c-2.1-0.8-4.2-1.6-6.3-2.3l-142.7,142.7&#10;&#9;C1776.5,237.6,1777.2,239.7,1778.1,241.7z"/>
  <path id="XMLID_61_" class="st0" d="M2135,1045v-20c27.6,0,50-22.4,50-50s-22.4-50-50-50v-20c38.6,0,70,31.4,70,70&#10;&#9;C2205,1013.6,2173.6,1045,2135,1045z"/>
  <polygon id="XMLID_241_" class="st0" points="538.4,1213.9 473.1,1148.6 473.1,1140.1 546.9,1213.9 "/>
  <polygon id="XMLID_259_" class="st0" points="561.1,1213.9 473.1,1125.9 473.1,1117.4 569.6,1213.9 "/>
  <polygon id="XMLID_260_" class="st0" points="583.8,1213.9 473.1,1103.2 473.1,1094.7 592.3,1213.9 "/>
  <polygon id="XMLID_261_" class="st0" points="515.7,1213.9 473.1,1171.3 473.1,1162.8 524.2,1213.9 "/>
  <polygon id="XMLID_262_" class="st0" points="493,1213.9 473.1,1194 473.1,1185.5 501.5,1213.9 "/>
  <polygon id="XMLID_263_" class="st0" points="473.1,1213.9 473.1,1208.2 478.9,1213.9 "/>
  <polygon id="XMLID_264_" class="st0" points="610.7,1213.9 606.5,1213.9 473.1,1080.6 473.1,1076.3 477.4,1076.3 610.7,1209.6 "/>
  <polygon id="XMLID_265_" class="st0" points="610.7,1104.7 582.3,1076.3 590.9,1076.3 610.7,1096.1 "/>
  <polygon id="XMLID_266_" class="st0" points="610.7,1195.5 491.6,1076.3 500.1,1076.3 610.7,1186.9 "/>
  <polygon id="XMLID_267_" class="st0" points="610.7,1127.4 559.6,1076.3 568.2,1076.3 610.7,1118.8 "/>
  <polygon id="XMLID_268_" class="st0" points="610.7,1082 605,1076.3 610.7,1076.3 "/>
  <polygon id="XMLID_269_" class="st0" points="610.7,1172.8 514.3,1076.3 522.8,1076.3 610.7,1164.2 "/>
  <polygon id="XMLID_270_" class="st0" points="610.7,1150.1 536.9,1076.3 545.5,1076.3 610.7,1141.5 "/>
  <polygon id="XMLID_242_" class="st0" points="428.5,384.2 363.3,318.9 363.3,310.4 437.1,384.2 "/>
  <polygon id="XMLID_238_" class="st0" points="451.2,384.2 363.3,296.2 363.3,287.7 459.8,384.2 "/>
  <polygon id="XMLID_148_" class="st0" points="473.9,384.2 363.3,273.5 363.3,265 482.5,384.2 "/>
  <polygon id="XMLID_146_" class="st0" points="405.8,384.2 363.3,341.6 363.3,333.1 414.4,384.2 "/>
  <polygon id="XMLID_96_" class="st0" points="383.1,384.2 363.3,364.3 363.3,355.8 391.7,384.2 "/>
  <polygon id="XMLID_94_" class="st0" points="363.3,384.2 363.3,378.5 369,384.2 "/>
  <polygon id="XMLID_92_" class="st0" points="500.9,384.2 496.6,384.2 363.3,250.9 363.3,246.6 367.6,246.6 500.9,379.9 "/>
  <polygon id="XMLID_90_" class="st0" points="500.9,275 472.5,246.6 481,246.6 500.9,266.4 "/>
  <polygon id="XMLID_88_" class="st0" points="500.9,365.8 381.7,246.6 390.3,246.6 500.9,357.2 "/>
  <polygon id="XMLID_73_" class="st0" points="500.9,297.7 449.8,246.6 458.3,246.6 500.9,289.1 "/>
  <polygon id="XMLID_71_" class="st0" points="500.9,252.3 495.2,246.6 500.9,246.6 "/>
  <polygon id="XMLID_69_" class="st0" points="500.9,343.1 404.4,246.6 412.9,246.6 500.9,334.5 "/>
  <polygon id="XMLID_60_" class="st0" points="500.9,320.4 427.1,246.6 435.6,246.6 500.9,311.8 "/>
  <path id="XMLID_7_" class="st0" d="M1174.3,799.2l18.3,8.1c-11.2,25.2,0.2,54.8,25.4,66c25.2,11.2,54.8-0.2,66-25.4l18.3,8.1&#10;&#9;c-15.7,35.3-57.1,51.2-92.4,35.6C1174.6,876,1158.6,834.5,1174.3,799.2z"/>
  <path id="XMLID_157_" class="st0" d="M277.4,2070v-20c27.6,0,50-22.4,50-50s-22.4-50-50-50v-20c38.6,0,70,31.4,70,70&#10;&#9;C347.4,2038.6,316,2070,277.4,2070z"/>
</svg>