<?xml version="1.0" encoding="utf-8"?>
<svg version="1.1" id="Слой_1" x="0px" y="0px" viewBox="0 0 2600 2000" style="enable-background:new 0 0 2600 2000;" xmlns="http://www.w3.org/2000/svg">
  <style type="text/css">
	.st0{opacity:0.08;fill:#1F4A71;}
</style>
  <path id="XMLID_9_" class="st0" d="M2405.6,649.7l-54.8-54.8l54.8-54.8l54.8,54.8L2405.6,649.7z M2365,595l40.6,40.6l40.6-40.6&#10;&#9;l-40.6-40.6L2365,595z"/>
  <rect id="XMLID_4_" x="2371.9" y="722.2" transform="matrix(0.7071 -0.7071 0.7071 0.7071 170.0555 1922.433)" class="st0" width="67.4" height="67.4"/>
  <path id="XMLID_12_" class="st0" d="M1107.9,1562.9c-21,0-38-17-38-38c0-21,17-38,38-38c21,0,38,17,38,38&#10;&#9;C1145.9,1545.8,1128.8,1562.9,1107.9,1562.9z M1107.9,1496.9c-15.4,0-28,12.6-28,28s12.6,28,28,28c15.4,0,28-12.6,28-28&#10;&#9;S1123.3,1496.9,1107.9,1496.9z"/>
  <circle id="XMLID_8_" class="st0" cx="1443.4" cy="1524.9" r="33"/>
  <path id="XMLID_13_" class="st0" d="M1603,1562.9c-21,0-38-17-38-38c0-21,17-38,38-38c21,0,38,17,38,38&#10;&#9;C1641,1545.8,1624,1562.9,1603,1562.9z M1603,1496.9c-15.4,0-28,12.6-28,28s12.6,28,28,28s28-12.6,28-28S1618.5,1496.9,1603,1496.9z&#10;&#9;"/>
  <path id="XMLID_47_" class="st0" d="M1425.8,1206.9l72.3-27.8l27.8,72.3l-72.3,27.8L1425.8,1206.9z M1492.3,1192l-53.6,20.6&#10;&#9;l20.6,53.6l53.6-20.6L1492.3,1192z"/>
  <rect id="XMLID_43_" x="1295" y="1130.1" transform="matrix(0.3594 0.9332 -0.9332 0.3594 1937.1954 -494.3789)" class="st0" width="67.4" height="67.4"/>
</svg>