<?xml version="1.0" encoding="utf-8"?><svg version="1.1" id="Слой_1" xmlns="http://www.w3.org/2000/svg" xmlns:xlink="http://www.w3.org/1999/xlink" x="0px" y="0px" viewBox="0 0 600 600" style="enable-background:new 0 0 600 600;" xml:space="preserve"><g fill="#3A4A66">
		<path d="M97.9,322.5h20v-45H46C57.4,147.2,166.8,45,300,45c117.5,0,216.3,79.4,245.9,187.5h46.4
			C561.8,99.3,442.5,0,300,0C134.3,0,0,134.3,0,300c0,7.6,0.3,15.1,0.8,22.5H46H97.9z"/>
		<path d="M599.2,277.5H554h-56.6h-15.3v45H554C542.6,452.8,433.2,555,300,555c-117.5,0-216.3-79.4-245.9-187.5H7.6
			C38.3,500.7,157.5,600,300,600c165.7,0,300-134.3,300-300C600,292.4,599.7,284.9,599.2,277.5z"/>
		<circle cx="423.4" cy="163.5" r="23.9"/>
		<polyline points="447.3,328.5 447.3,328.9 447.3,328.9 447.3,284 447.3,284 447.3,203.9 427.9,203.9 399.5,203.9 
			399.5,284 323.2,284 323.2,203.9 323.2,203.9 275.4,203.9 275.4,203.9 275.4,284 199.2,284 199.2,203.9 151.3,203.9 151.3,413.2 
			199.2,413.2 199.2,328.9 275.4,328.9 275.4,413.2 275.4,413.2 323.2,413.2 323.2,413.2 323.2,328.9 		"/>
</g></svg>