<svg xmlns="http://www.w3.org/2000/svg" viewBox="0 0 3457.7 939.9"><title>ааа</title><path d="M2267.8,602.6q0-8.1,6.3-14.7c4.2-4.4,9.8-6.6,16.7-6.6a20,20,0,0,1,15.2,6.6,21,21,0,0,1,6.1,14.7,23.91,23.91,0,0,1-6,16.2,19.38,19.38,0,0,1-15.3,6.9c-6.9,0-12.5-2.3-16.7-6.8A23.14,23.14,0,0,1,2267.8,602.6Z" fill="#0d0e0f"/><path d="M2567.5,547.7l25.2,49.5q-13.2,14.85-39.2,24.1a161.49,161.49,0,0,1-54.9,9.3q-67.2,0-109.4-41.1t-42.1-108.3q0-65.25,39.6-107.3t111.4-42.1c18.4,0,35.5,2.8,51.2,8.5s28.1,12.9,37.1,21.7l-29.3,49.5q-29.25-17.7-59-17.7-35.1,0-58,23.1t-22.9,64.4q0,38.4,24.3,62.9c16.2,16.4,37.3,24.6,63.1,24.6A102.54,102.54,0,0,0,2567.5,547.7Z" fill="#0d0e0f"/><path d="M2633.9,625.7,2754,336.8h59l120.1,288.9h-70.6L2838.6,565H2724.3l-23.9,60.7Zm147.7-204.3L2749,503.1h64.8Z" fill="#0d0e0f"/><path d="M3097,546.5c0-7.7-4.1-14.6-12.4-20.8a170.78,170.78,0,0,0-30.1-17.5c-11.8-5.5-23.7-11.7-35.5-18.6a89.41,89.41,0,0,1-30.1-29.3c-8.3-12.7-12.4-27.7-12.4-45q0-34.65,25.6-59c17.1-16.2,39.6-24.3,67.7-24.3q55.35,0,85,31.8l-35.5,49.5c-7.4-6.9-14.1-11.8-20-14.9s-13.8-4.5-23.7-4.5c-9.1,0-16.2,1.9-21.3,5.8a18.67,18.67,0,0,0-7.6,15.7c0,7.4,3,14,8.9,19.8a68.32,68.32,0,0,0,22.3,14.2q13.35,5.55,29.1,13.8a287.19,287.19,0,0,1,29.1,17.5c8.9,6.2,16.4,14.9,22.3,26s8.9,24.1,8.9,39c0,24.8-9.4,45.1-28.3,61.1s-42.4,23.9-70.8,23.9a144,144,0,0,1-59.4-12.8q-28.5-12.75-38.4-34.7l37.6-45a75.74,75.74,0,0,0,28.7,22.7c11.4,5.2,22.5,7.8,33.2,7.8,8.5,0,15.2-2,20-6S3097,553.3,3097,546.5Z" fill="#0d0e0f"/><polygon points="3391.7 625.7 3391.7 509.3 3286.4 509.3 3286.4 625.7 3220.4 625.7 3220.4 336.8 3286.4 336.8 3286.4 447.4 3391.7 447.4 3391.7 336.8 3457.7 336.8 3457.7 625.7 3391.7 625.7" fill="#0d0e0f"/><path d="M1245.8,506.6c5.9,11.1,8.9,24.1,8.9,39,0,24.8-9.4,45.1-28.3,61.1s-42.4,23.9-70.8,23.9a144,144,0,0,1-59.4-12.8q-28.5-12.75-38.4-34.7l37.6-45a75.74,75.74,0,0,0,28.7,22.7c11.4,5.2,22.5,7.8,33.2,7.8,8.5,0,15.2-2,20-6s7.2-9.4,7.2-16.3c0-7.7-4.1-14.6-12.4-20.8A170.8,170.8,0,0,0,1142,508c-11.8-5.5-23.7-11.7-35.5-18.6a89.41,89.41,0,0,1-30.1-29.3c-8.3-12.7-12.4-27.7-12.4-45q0-34.65,25.6-59c17.1-16.2,39.6-24.3,67.7-24.3q55.35,0,85,31.8l-35.5,49.5c-7.4-6.9-14.1-11.8-20-14.9s-13.8-4.5-23.7-4.5c-9.1,0-16.2,1.9-21.3,5.8a18.67,18.67,0,0,0-7.6,15.7c0,7.4,3,14,8.9,19.8a68.32,68.32,0,0,0,22.3,14.2q13.35,5.55,29.1,13.8a287.17,287.17,0,0,1,29.1,17.5C1232.4,486.8,1239.9,495.5,1245.8,506.6Z" fill="#0d0e0f"/><polygon points="1773 625.7 1839 625.7 1839 521.7 1927.7 521.7 1927.7 459.8 1839 459.8 1839 398.7 1940.1 398.7 1940.1 336.8 1773 336.8 1773 625.7" fill="#0d0e0f"/><polygon points="1993.5 336.8 1993.5 398.7 2080.2 398.7 2080.2 625.7 2146.2 625.7 2146.2 398.7 2232.9 398.7 2232.9 336.8 1993.5 336.8" fill="#0d0e0f"/><circle cx="1683.9" cy="281.1" r="33" fill="#3e506d"/><polyline points="1716.9 508.9 1716.9 509.3 1716.9 509.3 1716.9 447.4 1716.9 447.4 1716.9 336.8 1690 336.8 1650.9 336.8 1650.9 447.4 1545.6 447.4 1545.6 336.8 1545.6 336.8 1479.6 336.8 1479.6 336.8 1479.6 447.4 1374.3 447.4 1374.3 336.8 1308.3 336.8 1308.3 625.7 1374.3 625.7 1374.3 509.3 1479.6 509.3 1479.6 625.7 1479.6 625.7 1545.6 625.7 1545.6 625.7 1545.6 509.3" fill="#0d0e0f"/><path d="M153.3,505.2h31.3V434.7H72C89.8,230.6,261.2,70.5,469.9,70.5c184,0,338.9,124.4,385.3,293.7H928C880,155.6,693.2,0,470,0,210.4,0,0,210.4,0,470c0,11.9.4,23.6,1.3,35.2h152Z" fill="#3e506d"/><path d="M938.6,434.7H755.1v70.5H867.7C849.9,709.3,678.5,869.4,469.8,869.4c-184,0-338.9-124.4-385.3-293.7H11.7c48,208.6,234.8,364.2,458,364.2,259.6,0,470-210.4,470-470C939.9,458.1,939.5,446.3,938.6,434.7Z" fill="#3e506d"/><circle cx="663.3" cy="256.1" r="37.5" fill="#3e506d"/><polyline points="700.7 514.6 700.7 515.1 700.8 515.1 700.8 444.9 700.7 444.9 700.7 319.3 670.2 319.3 625.8 319.3 625.8 444.9 506.4 444.9 506.4 319.3 506.3 319.3 431.4 319.3 431.4 319.3 431.4 444.9 312 444.9 312 319.3 237 319.3 237 647.2 312 647.2 312 515.1 431.4 515.1 431.4 647.2 431.4 647.2 506.3 647.2 506.4 647.2 506.4 515.1" fill="#3e506d"/></svg>