<?xml version="1.0" encoding="iso-8859-1"?><svg version="1.1" id="Capa_1" xmlns="http://www.w3.org/2000/svg" xmlns:xlink="http://www.w3.org/1999/xlink" x="0px" y="0px" viewBox="0 0 470 470" style="enable-background:new 0 0 470 470;" xml:space="preserve">
<g fill="#334b6f">
	<path d="M369.852,293.667h-0.962l-3.944-10.983c2.098-1.33,3.495-3.666,3.495-6.333c0-4.142-3.358-7.5-7.5-7.5h-4.975v-83.479
		c3.092-0.926,5.347-3.79,5.347-7.183c0-4.142-3.358-7.5-7.5-7.5h-12.401v-19.522c0-4.142-3.358-7.5-7.5-7.5H136.089
		c-4.142,0-7.5,3.358-7.5,7.5v19.522h-12.401c-4.142,0-7.5,3.358-7.5,7.5c0,3.393,2.255,6.257,5.347,7.183v83.479h-4.975
		c-4.142,0-7.5,3.358-7.5,7.5c0,2.667,1.397,5.003,3.495,6.333l-3.944,10.983h-0.962c-4.142,0-7.5,3.358-7.5,7.5s3.358,7.5,7.5,7.5
		h6.191c0.071,0,257.249,0,257.249,0c0.071,0,6.263,0,6.263,0c4.142,0,7.5-3.358,7.5-7.5S373.994,293.667,369.852,293.667z
		 M143.589,158.667h182.822v12.022H143.589V158.667z M129.035,185.689h211.931v83.162h-30.386v-60.662c0-4.142-3.358-7.5-7.5-7.5
		s-7.5,3.358-7.5,7.5v60.662h-30.386v-60.662c0-4.142-3.358-7.5-7.5-7.5s-7.5,3.358-7.5,7.5v60.662h-30.386v-60.662
		c0-4.142-3.358-7.5-7.5-7.5s-7.5,3.358-7.5,7.5v60.662h-30.386v-60.662c0-4.142-3.358-7.5-7.5-7.5s-7.5,3.358-7.5,7.5v60.662
		h-30.386V185.689z M120.573,283.851h228.855l3.525,9.816H117.048L120.573,283.851z"/>
	<path d="M406.552,206.986c-6-37.011-23.463-70.449-50.503-96.699c-2.971-2.885-7.72-2.814-10.605,0.157
		c-2.885,2.972-2.815,7.72,0.157,10.605c24.708,23.986,40.665,54.533,46.145,88.336c0.597,3.683,3.78,6.301,7.394,6.301
		c0.399,0,0.803-0.032,1.209-0.098C404.438,214.927,407.215,211.075,406.552,206.986z"/>
	<path d="M297.752,89.08c8.751,3.768,17.22,8.365,25.17,13.662c1.278,0.852,2.722,1.259,4.151,1.259
		c2.424,0,4.804-1.174,6.249-3.343c2.296-3.447,1.364-8.104-2.083-10.4c-8.703-5.798-17.973-10.83-27.554-14.956
		c-3.802-1.636-8.216,0.118-9.855,3.922C292.191,83.029,293.948,87.441,297.752,89.08z"/>
	<path d="M235,76.201c11.831,0,23.626,1.306,35.056,3.881c4.044,0.913,8.055-1.627,8.965-5.668c0.91-4.041-1.628-8.055-5.668-8.965
		c-12.511-2.818-25.415-4.247-38.353-4.247c-41.521,0-81.712,14.877-113.171,41.892c-31.119,26.723-51.853,63.62-58.381,103.894
		c-0.663,4.089,2.115,7.941,6.203,8.604c0.407,0.066,0.811,0.098,1.209,0.098c3.613,0,6.797-2.619,7.394-6.301
		C90.764,132.214,156.685,76.201,235,76.201z"/>
	<path d="M355.012,340.396l-43.811-3.246c-3.668-0.27-6.995,2.159-7.85,5.739l-7.929,33.237l-30.063-16.227
		c-3.236-1.746-7.261-0.89-9.505,2.024L235,389.006l-20.853-27.082c-2.244-2.914-6.27-3.77-9.505-2.024l-30.063,16.228
		l-7.928-33.235c-0.854-3.581-4.186-6.015-7.85-5.739l-43.809,3.25c-4.131,0.307-7.231,3.904-6.925,8.034
		c0.307,4.131,3.908,7.243,8.034,6.925l37.441-2.778l8.711,36.521c0.541,2.267,2.104,4.153,4.231,5.105
		c2.126,0.951,4.575,0.861,6.626-0.246l33.042-17.835l22.903,29.745c1.419,1.844,3.615,2.924,5.942,2.924s4.522-1.081,5.942-2.924
		l22.905-29.746l33.042,17.835c2.051,1.106,4.5,1.197,6.626,0.246c2.127-0.952,3.69-2.839,4.231-5.105l8.712-36.523l37.443,2.774
		c4.128,0.312,7.728-2.794,8.034-6.925C362.244,344.299,359.143,340.702,355.012,340.396z"/>
</g></svg>