<svg width="600" height="600" xmlns="http://www.w3.org/2000/svg" preserveAspectRatio="xMidYMid">
 <g>
  <ellipse ry="300" rx="300" cy="300" cx="300" stroke-opacity="null" stroke-width="null" stroke="null" fill="#4e8ee9"/>
   <path d="m299.961,91.546997l-2.795,9.5l0,275.668l2.795,2.79l127.962,-75.638l-127.962,-212.32z" fill="#343434"/>
   <path d="m299.962,91.546997l-127.962,212.32l127.962,75.639l0,-133.801l0,-154.158z" fill="#8C8C8C"/>
   <path d="m299.961,403.733997l-1.575,1.92l0,98.199l1.575,4.6l128.039,-180.319l-128.039,75.6z" fill="#3C3C3B"/>
   <path d="m299.962,508.451997l0,-104.72l-127.962,-75.6l127.962,180.32z" fill="#8C8C8C"/>
   <path d="m299.961,379.504997l127.96,-75.637l-127.96,-58.162l0,133.799z" fill="#141414"/>
   <path d="m172,303.866997l127.96,75.638l0,-133.8l-127.96,58.162z" fill="#393939"/>
 </g>
</svg>